<svg width="24" height="25" viewBox="0 0 24 25" fill="none" xmlns="http://www.w3.org/2000/svg">
<path d="M19 4.5H5C4.20435 4.5 3.44129 4.81607 2.87868 5.37868C2.31607 5.94129 2 6.70435 2 7.5V17.5C2 18.2956 2.31607 19.0587 2.87868 19.6213C3.44129 20.1839 4.20435 20.5 5 20.5H19C19.7956 20.5 20.5587 20.1839 21.1213 19.6213C21.6839 19.0587 22 18.2956 22 17.5V7.5C22 6.70435 21.6839 5.94129 21.1213 5.37868C20.5587 4.81607 19.7956 4.5 19 4.5ZM18.33 6.5L12 11.25L5.67 6.5H18.33ZM19 18.5H5C4.73478 18.5 4.48043 18.3946 4.29289 18.2071C4.10536 18.0196 4 17.7652 4 17.5V7.75L11.4 13.3C11.5731 13.4298 11.7836 13.5 12 13.5C12.2164 13.5 12.4269 13.4298 12.6 13.3L20 7.75V17.5C20 17.7652 19.8946 18.0196 19.7071 18.2071C19.5196 18.3946 19.2652 18.5 19 18.5Z" fill="#353535"/>
</svg>
