<svg width="199" height="34" viewBox="0 0 199 34" fill="none" xmlns="http://www.w3.org/2000/svg">
<path d="M4.832 30.024H4.864C4.896 30.024 4.928 29.992 4.96 29.928C5.44 29.128 5.696 28.264 5.696 27.336C5.696 27.112 5.696 26.888 5.664 26.664C5.504 25.384 5.312 24.104 5.248 22.824C5.216 22.12 5.152 21.384 5.152 20.648V20.424C5.152 20.136 5.248 20.104 5.696 20.008H5.856C6.624 19.912 7.392 19.848 8.16 19.848C9.344 19.848 10.528 19.976 11.712 20.168C11.872 20.2 12.064 20.2 12.224 20.2C12.64 20.2 13.024 20.104 13.408 19.912C13.664 19.784 13.888 19.688 14.176 19.688C14.24 19.688 14.336 19.688 14.432 19.72C14.496 19.752 14.528 19.752 14.592 19.752C14.72 19.752 14.88 19.688 15.008 19.624C15.2 19.528 15.424 19.432 15.648 19.4C15.904 19.368 16.288 19.272 16.32 19.112C16.448 18.728 16.864 18.696 17.024 18.344C16.768 18.184 16.576 17.896 16.256 17.832C16.096 17.8 16.032 17.704 16.032 17.576V17.32C16.032 16.904 15.84 16.488 15.712 16.104C15.648 15.88 15.488 15.752 15.232 15.752C14.56 15.72 13.856 15.72 13.184 15.72C11.264 15.72 9.312 15.848 7.424 16.36C6.688 16.584 5.92 16.712 5.184 16.904C5.12 16.744 5.12 16.616 5.12 16.456V16.2C5.152 15.4 5.184 14.6 5.248 13.8C5.376 11.368 5.568 8.936 5.92 6.536C5.952 6.184 6.112 6.024 6.432 5.928C8.192 5.48 9.92 5.064 11.712 4.872C12.384 4.808 13.056 4.776 13.696 4.776C14.72 4.776 15.744 4.872 16.768 5.096C16.896 5.128 17.024 5.16 17.12 5.16C17.344 5.16 17.536 5.096 17.728 4.936C17.824 4.84 17.984 4.776 18.112 4.68C18.304 4.52 18.496 4.424 18.72 4.424C18.784 4.424 18.88 4.424 18.976 4.456C19.104 4.488 19.2 4.52 19.328 4.52C19.552 4.52 19.776 4.424 19.904 4.168C19.936 4.072 20.064 4.072 20.16 4.072C20.608 4.04 20.8 3.88 20.96 3.464C20.96 3.4 21.024 3.336 21.056 3.336C21.376 3.336 21.504 3.08 21.728 2.92C21.44 2.632 21.152 2.408 20.736 2.376C20.48 2.344 20.224 2.216 20.064 2.024C19.84 1.8 19.616 1.608 19.296 1.48C19.424 1.384 19.52 1.384 19.616 1.384H19.84C20.064 1.384 20.128 1.64 20.288 1.768C20.352 1.576 20.384 1.416 20.384 1.32C20.384 1.064 20.256 0.999998 19.936 0.999998H19.808C19.616 1.032 19.456 1.032 19.264 1.032C18.464 0.999998 17.664 0.967999 16.832 0.935999C16.672 0.935999 16.512 0.903999 16.32 0.903999C17.28 0.775999 18.24 0.679998 19.232 0.679998C19.488 0.679998 19.776 0.647999 20.032 0.615999C20.16 0.615999 20.192 0.584 20.192 0.487999C20.16 0.455999 20.128 0.391998 20.096 0.359999H19.552C16.384 0.487999 13.216 0.775999 10.144 1.704C8.48 2.216 6.784 2.632 5.216 3.4C5.152 3.432 5.056 3.464 4.96 3.496C4.864 3.528 4.768 3.528 4.704 3.528C4.544 3.528 4.48 3.464 4.48 3.336C4.48 3.272 4.48 3.176 4.512 3.08V2.984C4.512 2.728 4.352 2.536 4.288 2.536C4.224 2.568 4.16 2.568 4.096 2.568C3.968 2.568 3.936 2.504 3.936 2.408C3.936 2.312 3.968 2.216 3.968 2.152V2.056C3.968 1.992 3.968 1.928 3.872 1.896C3.712 1.896 3.68 2.024 3.616 2.12C3.552 2.408 3.456 2.664 3.392 2.92C3.328 3.016 3.328 3.144 3.232 3.144C3.232 3.144 3.2 3.112 3.168 3.112C3.104 3.08 3.04 3.08 2.976 3.08C2.688 3.08 2.464 3.272 2.208 3.272H2.144C2.08 3.272 1.952 3.368 1.888 3.432C1.504 4.168 0.96 4.808 0.768 5.64C0.224 7.752 0.096 9.896 0.064 12.04C0.064 12.872 0.032 13.736 0.032 14.568C0.032 18.088 0.16 21.608 0.416 25.128C0.512 26.312 0.576 27.496 0.768 28.68C0.832 29.16 0.992 29.576 1.376 29.896C1.728 30.184 1.984 30.536 2.272 30.856C2.4 31.016 2.464 31.24 2.656 31.4C2.816 31.496 2.944 31.56 3.04 31.56C3.2 31.56 3.328 31.464 3.456 31.272C3.552 31.144 3.616 31.016 3.68 30.888C3.776 30.76 3.872 30.664 4.064 30.632C4.512 30.568 4.512 30.536 4.512 30.088V29.96C4.512 29.896 4.544 29.864 4.576 29.832H4.608C4.768 29.832 4.704 30.024 4.832 30.024ZM11.136 16.168C11.872 16.104 12.608 16.072 13.344 16.072C13.984 16.072 14.624 16.104 15.264 16.136H15.36C15.392 16.136 15.424 16.136 15.456 16.168C15.488 16.2 15.52 16.264 15.552 16.296V16.328C15.552 16.392 15.52 16.424 15.456 16.424C15.36 16.424 15.232 16.456 15.104 16.488C14.912 16.488 14.72 16.488 14.528 16.456C13.376 16.296 12.256 16.168 11.136 16.168ZM14.848 16.872H15.136C15.648 16.872 15.744 17.032 15.84 17.64C15.488 17.416 15.264 17.096 14.848 16.872ZM33.3705 29.864C33.1145 29.896 33.0185 30.088 32.8585 30.184C32.5705 30.408 32.3465 30.536 32.1865 30.536C31.9625 30.536 31.8025 30.28 31.6745 29.768C31.6105 29.544 31.5785 29.288 31.5785 29.064C31.5785 28.84 31.5465 28.616 31.5465 28.392C31.5465 28.04 31.5785 27.72 31.6105 27.4C31.6745 26.696 31.6745 25.992 31.6745 25.32V23.912C31.6745 23.208 31.6425 23.144 30.9065 23.08C30.6185 23.048 30.5225 22.92 30.5225 22.632C30.5545 22.44 30.5865 22.344 30.7145 22.216C30.9705 21.992 31.2265 21.768 31.4505 21.512C31.9305 20.968 32.1865 20.264 32.1865 19.592C32.1865 18.632 31.7385 17.704 30.8745 17.192C30.5225 16.968 30.2345 16.712 29.9465 16.392C29.3065 15.56 28.4105 15.176 27.3865 15.176H27.1305C26.2985 15.24 25.4985 15.496 24.7945 15.944C23.9945 16.392 23.1945 16.872 22.4585 17.416C19.8345 19.432 18.2025 22.024 17.7545 25.288C17.7225 25.64 17.6905 25.992 17.6905 26.312C17.6905 27.368 17.9145 28.392 18.5545 29.32C19.0025 29.992 19.4825 30.632 19.9625 31.304C20.5065 32.104 21.3065 32.424 22.2345 32.424H22.4905C23.3225 32.36 24.0905 32.04 24.7945 31.56C26.0425 30.792 27.2905 29.96 28.2185 28.808C28.2505 28.776 28.3145 28.776 28.3465 28.744C28.4105 28.872 28.4745 29 28.5065 29.128C28.8265 29.896 29.3385 30.568 29.8505 31.208C30.2345 31.688 30.7145 31.912 31.1945 31.912C31.3865 31.912 31.6105 31.88 31.8025 31.784C32.1865 31.624 32.5065 31.432 32.8265 31.144C33.1465 30.856 33.4025 30.504 33.4025 30.088C33.4025 29.992 33.3705 29.928 33.3705 29.864ZM22.8105 25.64C22.8745 23.944 23.3865 22.28 24.4105 20.808C24.7305 20.328 25.1465 20.072 25.6905 19.944C26.0745 19.848 26.4265 19.816 26.7785 19.816C27.5145 19.816 28.1865 20.008 28.8265 20.424C28.9865 20.52 29.1785 20.648 29.2105 20.84C29.3065 21.256 29.5625 21.576 29.8185 21.928C29.9145 22.056 30.0425 22.184 30.0425 22.376V22.472C30.0425 22.632 29.9785 22.696 29.7865 22.696H29.6905C29.1465 22.696 28.6985 23.048 28.4105 23.688C28.1865 24.232 28.0905 24.808 28.0585 25.384C28.0265 25.704 27.8985 26.024 27.7385 26.312C27.3865 26.92 26.9705 27.464 26.4585 27.944C25.8825 28.52 25.2425 28.744 24.4745 28.744C24.3465 28.744 24.2185 28.712 24.0585 28.712C23.6745 28.68 23.4185 28.488 23.2585 28.072C23.0025 27.304 22.8425 26.536 22.8105 25.64ZM28.6985 15.72C28.4745 15.656 28.2505 15.656 28.0265 15.656C27.4505 15.656 26.8745 15.816 26.2985 15.976C25.8825 16.104 25.4665 16.2 25.0185 16.264C25.4985 15.784 26.5545 15.496 27.4825 15.496C27.9625 15.496 28.3785 15.56 28.6985 15.72ZM29.5305 16.616C28.9545 16.616 28.1225 16.424 27.5145 16.104C27.7065 16.072 27.8665 16.04 28.0585 16.04C28.5385 16.04 29.0505 16.2 29.5305 16.616ZM23.9305 28.904C24.2505 28.904 24.5705 28.936 24.8905 28.936C24.7305 29.064 24.5705 29.128 24.4425 29.128C24.2825 29.128 24.0905 29.032 23.9305 28.904ZM39.0783 29.256C38.4062 29.352 37.9263 29.896 37.9263 30.504C37.9263 30.76 38.0223 31.016 38.1823 31.24C38.6623 31.88 39.2063 32.488 39.9103 32.936C40.4863 33.288 41.0943 33.448 41.7663 33.48H41.9263C42.7583 33.48 43.5263 33.224 44.3263 32.904C46.2783 32.104 47.7823 30.792 49.2543 29.352C49.6703 28.936 49.8943 28.392 50.0543 27.816C50.0863 27.688 50.1183 27.592 50.1183 27.496C50.1183 27.176 49.9583 26.92 49.7023 26.696C49.4463 26.472 49.1583 26.312 48.8703 26.152C48.7103 26.088 48.5503 26.024 48.4543 25.928C47.8463 25.224 47.0143 24.904 46.1823 24.584C44.8383 24.04 43.3983 23.688 42.0223 23.208C41.3503 22.984 40.6783 22.76 40.0383 22.472C39.5263 22.216 39.3983 21.768 39.3663 21.288C39.3663 20.84 39.5903 20.552 39.9743 20.36C40.7103 19.976 41.4783 19.656 42.2783 19.464C43.0463 19.272 43.8142 19.176 44.5823 19.176C45.1583 19.176 45.7663 19.24 46.3743 19.368C46.7583 19.464 47.2063 19.528 47.3983 19.784C47.7503 20.2 48.2623 20.392 48.4543 20.904C48.4863 21 48.5183 21.16 48.7103 21.16H48.7423C48.8703 20.744 49.1263 20.392 49.6703 20.328C49.7343 20.328 49.8303 20.296 49.8623 20.232C50.2143 19.848 50.5983 19.496 50.8223 18.984C50.9823 18.664 51.0463 18.344 51.0463 18.024C51.0463 17.512 50.8542 17 50.4703 16.616C50.1503 16.264 49.7663 16.04 49.3503 15.88C49.1263 15.784 48.9343 15.688 48.7423 15.496C47.6543 14.312 46.2783 13.896 44.7743 13.896H44.4223C42.7263 13.992 41.2223 14.632 39.8463 15.56C39.2063 15.976 38.6943 16.552 38.0863 16.968C36.9023 17.8 35.9743 18.856 35.2383 20.072C34.7903 20.808 34.5663 21.608 34.4703 22.44V22.696C34.4703 23.432 34.7263 24.104 35.3343 24.616C35.6223 24.84 35.9103 25.096 36.1023 25.416C36.6783 26.344 37.5743 26.76 38.5343 27.08C39.7183 27.464 40.9663 27.656 42.1823 27.912C43.2063 28.104 44.2623 28.264 45.2863 28.616C43.7823 29.096 42.3423 29.768 40.7743 30.024C40.9023 30.056 40.9983 30.056 41.0943 30.056C41.4463 30.056 41.7663 29.96 42.0863 29.896C43.0783 29.672 44.0063 29.256 44.9663 29.032C45.0303 29 45.0943 28.968 45.1903 28.968C45.2543 28.968 45.3183 29 45.3823 29.096C44.1983 29.544 43.0463 29.992 41.7983 30.216C41.4783 30.248 41.1583 30.28 40.8383 30.28C40.4543 30.28 40.0383 30.248 39.6543 30.12C39.2383 30.024 39.1423 29.896 39.1423 29.48C39.1423 29.384 39.1423 29.32 39.0783 29.256ZM40.4223 15.624C41.8623 14.792 43.3343 14.216 44.9983 14.216C45.3503 14.216 45.7663 14.248 46.1503 14.312C46.0863 14.376 46.0223 14.376 45.9583 14.376C45.8943 14.376 45.7983 14.376 45.7343 14.344H45.2543C44.1023 14.568 42.8863 14.696 41.7983 15.24C41.3823 15.464 40.9023 15.592 40.4223 15.624ZM47.6543 15.336H47.2703C46.1503 15.336 45.1903 15.016 44.1343 14.984C44.5183 14.856 44.9663 14.792 45.4143 14.792C46.1823 14.792 46.9823 14.984 47.6543 15.336ZM40.1023 30.44C40.1663 30.408 40.1983 30.408 40.2303 30.408C40.2943 30.408 40.3583 30.44 40.4223 30.472V30.504C40.4223 30.568 40.4223 30.568 40.3903 30.568C40.3583 30.568 40.3263 30.536 40.2943 30.536C40.2303 30.504 40.1343 30.536 40.1023 30.44ZM70.5903 29V28.808C70.2383 28.904 70.0143 29.096 69.7903 29.224C69.6303 29.32 69.5023 29.352 69.4383 29.352C69.2783 29.352 69.2463 29.224 69.2463 28.872C69.2783 28.584 69.3103 28.264 69.3423 27.944C69.5983 26.632 69.7583 25.32 69.7583 24.008C69.7583 23.624 69.8223 23.24 69.8223 22.888C69.8542 22.248 69.8863 21.576 69.8863 20.936C69.8863 20.104 69.8223 19.272 69.7263 18.44C69.6623 17.8 69.5343 17.16 69.2463 16.552C68.9583 15.912 68.5103 15.496 67.8063 15.4C67.3903 15.336 67.1023 15.208 66.8463 14.856C66.5263 14.408 66.1103 14.216 65.6623 14.216C65.4703 14.216 65.2463 14.248 65.0543 14.312C64.3183 14.504 63.6463 14.824 63.0383 15.304C61.5023 16.584 60.0303 17.896 59.0383 19.688C58.9743 19.816 58.9743 20.008 58.7503 20.008C58.7183 19.944 58.7183 19.88 58.7183 19.848C58.7183 19.752 58.7183 19.656 58.7503 19.592C58.9423 15.464 59.2943 11.336 59.8383 7.208C59.9663 6.184 60.1263 5.192 60.5743 4.232C60.7343 3.88 60.7663 3.432 60.8623 3.016C60.8623 2.92 60.8623 2.824 60.7343 2.792C60.5743 2.76 60.3823 2.696 60.1903 2.696C60.0943 2.696 60.0303 2.696 59.9343 2.76C59.7743 2.856 59.6463 2.856 59.5183 2.856H59.2943C59.0383 2.856 58.9423 2.76 58.9423 2.504V2.28C58.9423 2.184 58.9103 2.088 58.8143 2.024C58.5903 1.896 58.4623 1.704 58.3663 1.48C58.3343 1.384 58.2703 1.352 58.2063 1.352C58.1423 1.352 58.0783 1.384 58.0143 1.448C57.8223 1.64 57.7263 1.864 57.6623 2.088C57.5663 2.504 57.3103 2.728 56.8943 2.792C56.5423 2.824 56.3503 3.048 56.1583 3.336C55.5503 4.296 55.1023 5.352 54.8463 6.472C54.3983 8.52 54.1743 10.568 54.0143 12.648C53.8543 14.952 53.6943 17.288 53.5983 19.624C53.5343 20.968 53.4703 22.312 53.4703 23.656C53.4703 24.36 53.5023 25.064 53.5343 25.768C53.6303 26.888 53.7903 27.976 54.2383 29C54.4303 29.448 54.6543 29.896 55.1983 30.024C55.2943 30.056 55.3583 30.088 55.3903 30.152C55.5503 30.536 55.9343 30.76 56.1903 31.112C56.3183 31.272 56.4463 31.336 56.5743 31.336C56.7023 31.336 56.8303 31.272 56.9583 31.112C57.1823 30.888 57.2463 30.6 57.3743 30.344C57.4703 30.184 57.5343 29.992 57.6943 29.992H57.7263C58.1743 29.992 58.4303 29.736 58.5903 29.384C58.6223 29.288 58.6863 29.224 58.7823 29.16C59.0383 28.936 59.2303 28.648 59.3583 28.328C59.6463 27.528 59.7743 26.696 59.9343 25.896C60.2543 24.008 60.7343 22.152 61.7583 20.488C62.4303 19.4 63.4543 19.016 64.6063 18.824C64.6383 18.824 64.6703 18.792 64.7023 18.792C64.8623 18.792 64.9263 18.92 64.9583 19.08C64.9903 19.176 65.0223 19.272 65.0223 19.368C65.0863 20.104 65.1503 20.84 65.1503 21.544C65.1503 22.024 65.1183 22.504 65.0863 22.984C64.9583 24.488 64.8623 25.96 64.7023 27.464V27.72C64.7023 28.104 64.7663 28.456 64.8623 28.808C65.0543 29.576 65.3103 30.344 65.9503 30.856C66.3023 31.144 66.6543 31.464 66.9423 31.784C67.2303 32.072 67.5503 32.232 67.9023 32.232C68.1583 32.232 68.4143 32.136 68.6383 31.944C69.1823 31.496 69.7263 31.048 70.1103 30.472C70.3663 30.056 70.5903 29.576 70.5903 29ZM62.9423 15.752C63.6143 15.048 64.7663 14.568 65.6943 14.568H65.9183C64.8623 14.856 63.9343 15.368 62.9423 15.752ZM65.1503 15.144C65.4383 15.048 65.6943 14.952 65.9503 14.952C66.1103 14.952 66.2703 14.984 66.4303 15.08C66.4943 15.112 66.5583 15.144 66.5583 15.24V15.304C66.5263 15.368 66.4623 15.4 66.3663 15.4H66.3023C65.9503 15.24 65.5343 15.4 65.1503 15.144ZM58.2383 1.704C58.2703 1.832 58.2703 1.928 58.2703 2.024C58.2703 2.248 58.2063 2.44 58.1102 2.6C58.0783 2.664 57.9823 2.696 57.9183 2.696H57.8543C57.8223 2.664 57.7903 2.6 57.7903 2.536V2.472C57.8543 2.184 57.9503 1.928 58.2383 1.704ZM58.2383 28.744V28.872C58.2383 29 58.2063 29.096 58.1102 29.16C58.0783 29.128 58.0783 29.096 58.0783 29.064C58.0783 28.936 58.1743 28.872 58.2383 28.744ZM80.8013 27.56C80.8333 27.592 80.8653 27.656 80.8653 27.688C80.8653 27.72 80.8333 27.752 80.8013 27.752C80.5773 27.88 80.3213 27.944 80.0653 27.944C79.8733 27.944 79.6813 27.912 79.4893 27.848C79.9373 27.72 80.2893 27.816 80.6093 27.624C80.4173 27.656 80.2253 27.656 80.0013 27.656H79.7453C79.2333 27.656 79.1373 27.528 79.0093 26.888C78.7853 25.864 78.6573 24.808 78.5613 23.72C78.4973 23.112 78.4973 22.472 78.4973 21.832C78.4973 20.808 78.5613 19.784 78.6253 18.76C78.6893 18.088 78.7213 17.384 78.8813 16.712C78.9133 16.648 78.9133 16.584 78.9133 16.52C78.9133 16.392 78.8173 16.296 78.6253 16.264C78.4973 16.232 78.3693 16.168 78.2413 16.168C78.1773 16.168 78.1133 16.2 78.0493 16.232C77.9852 16.264 77.9533 16.264 77.8893 16.264C77.7613 16.264 77.6333 16.232 77.5373 16.232C77.3133 16.232 77.1853 16.168 77.1853 15.944V15.88C77.1853 15.816 77.2173 15.752 77.2173 15.688C77.2173 15.528 77.1213 15.4 76.9293 15.304C76.8013 15.24 76.7373 15.176 76.7373 15.08C76.7373 15.016 76.8013 14.92 76.8973 14.856C77.3773 14.504 77.5693 13.8 78.2733 13.736L78.3693 13.64C79.4573 12.712 80.2253 11.56 80.5453 10.152C80.5773 10.024 80.5773 9.928 80.5773 9.832C80.5773 9.608 80.4813 9.512 80.1293 9.384C79.6813 9.224 79.2973 9 78.9133 8.712C78.6893 8.584 78.6893 8.424 78.6253 8.136C78.4973 8.328 78.4013 8.456 78.2733 8.456C78.1773 8.456 78.1133 8.392 78.0173 8.328C77.9852 8.296 77.9533 8.296 77.9213 8.296C77.8573 8.296 77.7613 8.36 77.7293 8.424C77.6333 8.52 77.5052 8.616 77.4093 8.68H77.3773C77.3133 8.68 77.2812 8.68 77.2493 8.648C77.2173 8.648 77.2173 8.616 77.2173 8.584C77.2173 8.552 77.2173 8.552 77.2493 8.52C77.3453 8.296 77.6013 8.2 77.7613 7.976H77.6333C77.5052 7.976 77.4413 8.008 77.3773 8.072C77.0893 8.52 76.7373 8.84 76.2253 9C76.0973 9.064 76.0013 9.192 75.9373 9.288C75.6173 9.672 75.3293 10.088 75.1373 10.536C74.8813 11.112 74.6893 11.72 74.6893 12.36C74.6893 12.552 74.7213 12.744 74.7533 12.968C74.8173 13.32 74.9453 13.64 75.3613 13.768C75.4893 13.8 75.5533 13.864 75.5853 13.992C75.6493 14.216 75.8093 14.344 75.9373 14.536C76.1933 14.856 76.2893 15.016 76.2893 15.208C76.2893 15.336 76.2573 15.528 76.1933 15.784C76.1933 15.816 76.1613 15.848 76.1613 15.88H75.8413C75.4573 15.88 75.1053 15.912 74.9133 16.168C74.4973 16.68 74.0813 17.224 73.9213 17.896C73.6333 19.24 73.5053 20.584 73.4093 21.928C73.3773 22.6 73.3453 23.272 73.3453 23.976C73.3453 24.712 73.3773 25.48 73.4733 26.248C73.6333 27.272 73.9853 28.168 74.6893 28.904C75.1373 29.352 75.5533 29.8 75.9693 30.312C76.3533 30.824 76.8973 31.016 77.5373 31.016H77.7933C78.5933 30.92 79.3613 30.696 80.0333 30.28C80.8973 29.736 81.6653 29.096 82.3693 28.392C83.1053 27.624 83.5213 26.696 83.6493 25.64V25.384C83.6493 25.256 83.6493 25.16 83.5533 25.032C83.3933 25.224 83.2653 25.416 83.1373 25.576C82.8493 25.992 82.5613 26.376 82.2413 26.728C81.8253 27.144 81.3773 27.464 80.8013 27.56ZM77.9533 8.648C78.0493 8.648 78.1133 8.68 78.1133 8.776V8.808C78.1133 8.84 78.1133 8.84 78.0813 8.84H78.0173C77.9533 8.84 77.8893 8.808 77.8573 8.712C77.8573 8.712 77.9213 8.68 77.9533 8.648ZM99.092 21.8C99.092 20.264 98.932 19.208 98.484 18.184C98.1 17.352 97.652 16.552 96.788 16.104C96.276 15.816 95.828 15.464 95.348 15.112C94.708 14.568 93.908 14.312 93.108 14.312C92.148 14.312 91.156 14.696 90.484 15.464C90.292 15.656 90.1 15.784 89.908 15.912C89.076 16.424 88.564 17.16 88.244 18.12C88.116 18.568 87.924 19.048 87.348 19.176C87.028 19.24 86.804 19.496 86.612 19.752C85.716 21 85.012 22.28 84.788 23.816C84.724 24.232 84.692 24.648 84.692 25.064C84.692 26.696 85.172 28.2 86.228 29.544C86.804 30.28 87.444 30.952 88.116 31.592C88.724 32.168 89.492 32.456 90.292 32.456C90.516 32.456 90.74 32.456 90.996 32.392C92.02 32.2 92.916 31.752 93.716 31.048C94.132 30.664 94.612 30.28 95.06 29.928C96.02 29.224 96.852 28.392 97.46 27.4C98.58 25.544 99.06 23.496 99.092 21.8ZM95.252 22.664V22.92C95.22 23.944 94.964 25.16 94.356 26.312C94.036 26.952 93.556 27.368 92.852 27.528C92.436 27.656 92.02 27.72 91.572 27.72C91.412 27.72 91.252 27.72 91.092 27.688C90.804 27.656 90.58 27.496 90.452 27.24C89.684 25.992 89.268 24.616 89.268 23.176C89.268 22.888 89.3 22.6 89.332 22.312C89.396 21.608 89.652 20.936 89.972 20.296C90.132 20.008 90.292 19.72 90.324 19.368C90.324 19.272 90.324 19.208 90.388 19.176C90.964 19.048 91.444 18.6 92.084 18.6C92.692 18.6 93.268 18.664 93.812 18.888C94.228 19.048 94.484 19.336 94.676 19.72C95.028 20.488 95.252 21.48 95.252 22.664ZM93.972 14.664H93.876C92.82 14.664 91.924 15.144 90.964 15.4C91.636 14.856 92.308 14.536 93.108 14.536C93.396 14.536 93.684 14.568 93.972 14.664ZM94.9 15.432C94.772 15.464 94.644 15.464 94.516 15.464C93.94 15.464 93.396 15.304 92.884 15.144C93.14 15.08 93.364 15.048 93.62 15.048C94.068 15.048 94.484 15.176 94.9 15.432ZM92.628 27.976C92.436 28.168 92.212 28.232 91.988 28.232C91.86 28.232 91.7 28.2 91.54 28.168C91.764 27.976 91.956 27.944 92.148 27.944C92.308 27.944 92.468 27.976 92.628 27.976ZM105.775 14.696H105.711C105.615 14.696 105.583 14.792 105.551 14.888C105.519 15.048 105.583 15.24 105.391 15.4C105.327 15.304 105.327 15.208 105.327 15.112C105.327 14.984 105.359 14.856 105.391 14.76C105.423 14.632 105.487 14.6 105.551 14.6C105.647 14.6 105.711 14.632 105.775 14.696L105.679 14.312C105.647 14.184 105.647 14.056 105.487 14.024H105.455C105.327 14.024 105.263 14.152 105.199 14.28C105.039 14.6 105.039 14.984 104.911 15.432C104.783 15.304 104.687 15.24 104.591 15.24C104.367 15.24 104.174 15.432 103.951 15.432H103.855C103.631 15.432 103.503 15.592 103.343 15.752C103.087 16.04 103.055 16.456 102.767 16.68C102.575 16.808 102.543 17 102.479 17.192C102.255 18.152 102.159 19.112 102.127 20.104V21.096C102.127 23.24 102.287 25.32 102.415 27.464C102.447 28.104 102.543 28.744 102.735 29.384C102.863 29.768 103.055 30.088 103.471 30.216C103.567 30.248 103.663 30.28 103.695 30.376C103.791 30.792 104.174 31.016 104.335 31.368C104.431 31.528 104.527 31.592 104.623 31.592C104.719 31.592 104.847 31.528 104.975 31.4C105.167 31.24 105.263 30.984 105.391 30.76C105.487 30.568 105.615 30.376 105.839 30.376C105.871 30.376 105.903 30.408 105.967 30.408H106.062C106.191 30.408 106.319 30.344 106.383 30.216C106.543 29.928 106.831 29.736 107.055 29.512C107.503 29.096 107.631 28.52 107.663 27.912C107.727 26.568 108.079 25.288 108.527 24.008C109.231 21.992 110.255 20.168 111.599 18.504C111.951 18.088 112.367 17.864 112.879 17.8H113.007C113.263 17.8 113.327 17.896 113.423 18.184C113.487 18.504 113.519 18.824 113.519 19.144C113.519 19.368 113.519 19.624 113.487 19.848C113.359 21.416 113.199 23.016 113.103 24.616C113.039 25.448 112.975 26.28 112.975 27.112C112.975 27.464 112.975 27.816 113.007 28.168C113.103 29 113.391 29.672 114.031 30.216C114.351 30.472 114.607 30.76 114.831 31.112C115.119 31.56 115.535 31.816 116.047 31.816C116.143 31.816 116.239 31.784 116.335 31.784C116.783 31.72 117.199 31.624 117.551 31.368C118.095 30.984 118.607 30.6 119.055 30.12C119.343 29.832 119.503 29.512 119.503 29.128V28.968C119.503 28.744 119.439 28.648 119.279 28.648C119.215 28.648 119.087 28.68 118.958 28.744C118.895 28.776 118.799 28.84 118.703 28.872C118.607 28.936 118.51 28.968 118.447 28.968C118.319 28.968 118.255 28.872 118.191 28.648C118.159 28.456 118.127 28.264 118.127 28.072C118.127 27.656 118.095 27.24 117.999 26.824C117.871 26.216 117.807 25.576 117.807 24.936V24.264C117.807 22.856 117.871 21.416 117.935 19.976C117.967 19.528 117.967 19.048 117.967 18.6C117.967 18.216 117.967 17.832 117.903 17.448C117.679 16.232 117.135 15.336 115.919 14.952C115.663 14.888 115.535 14.696 115.375 14.504C114.927 13.992 114.511 13.736 114.031 13.736C113.711 13.736 113.327 13.896 112.943 14.184C111.951 14.888 110.991 15.624 110.223 16.616C109.359 17.736 108.687 18.952 108.047 20.2C107.983 20.36 107.951 20.584 107.759 20.68C107.695 20.616 107.663 20.584 107.663 20.52C107.759 19.048 107.663 17.608 108.143 16.168C108.143 16.104 108.175 16.04 108.175 15.976C108.175 15.912 108.143 15.848 108.047 15.816C107.855 15.752 107.631 15.624 107.439 15.624C107.375 15.624 107.343 15.624 107.279 15.656C107.151 15.72 107.023 15.752 106.895 15.752C106.639 15.752 106.383 15.656 106.127 15.656C106.127 15.432 106.159 15.272 106.159 15.08C106.159 14.824 106.127 14.792 105.775 14.696ZM112.719 14.632C113.103 14.28 113.519 13.96 114.063 13.96C114.191 13.96 114.319 13.992 114.479 14.024C113.807 14.216 113.327 14.536 112.719 14.632ZM113.839 14.6C113.999 14.504 114.191 14.472 114.351 14.472C114.575 14.472 114.831 14.568 115.055 14.792C114.959 14.824 114.863 14.824 114.767 14.824C114.415 14.824 114.127 14.664 113.839 14.6ZM128.833 27.56C128.865 27.592 128.897 27.656 128.897 27.688C128.897 27.72 128.865 27.752 128.833 27.752C128.609 27.88 128.353 27.944 128.097 27.944C127.905 27.944 127.713 27.912 127.521 27.848C127.969 27.72 128.321 27.816 128.641 27.624C128.449 27.656 128.257 27.656 128.033 27.656H127.777C127.265 27.656 127.169 27.528 127.041 26.888C126.817 25.864 126.689 24.808 126.593 23.72C126.529 23.112 126.529 22.472 126.529 21.832C126.529 20.808 126.593 19.784 126.657 18.76C126.721 18.088 126.753 17.384 126.913 16.712C126.945 16.648 126.945 16.584 126.945 16.52C126.945 16.392 126.849 16.296 126.657 16.264C126.529 16.232 126.401 16.168 126.273 16.168C126.209 16.168 126.145 16.2 126.081 16.232C126.016 16.264 125.985 16.264 125.921 16.264C125.793 16.264 125.665 16.232 125.569 16.232C125.345 16.232 125.217 16.168 125.217 15.944V15.88C125.217 15.816 125.249 15.752 125.249 15.688C125.249 15.528 125.153 15.4 124.961 15.304C124.833 15.24 124.769 15.176 124.769 15.08C124.769 15.016 124.833 14.92 124.929 14.856C125.409 14.504 125.601 13.8 126.305 13.736L126.401 13.64C127.489 12.712 128.257 11.56 128.577 10.152C128.609 10.024 128.609 9.928 128.609 9.832C128.609 9.608 128.513 9.512 128.161 9.384C127.713 9.224 127.329 9 126.945 8.712C126.721 8.584 126.721 8.424 126.657 8.136C126.529 8.328 126.433 8.456 126.305 8.456C126.209 8.456 126.145 8.392 126.049 8.328C126.016 8.296 125.985 8.296 125.953 8.296C125.889 8.296 125.793 8.36 125.761 8.424C125.665 8.52 125.536 8.616 125.441 8.68H125.409C125.345 8.68 125.312 8.68 125.281 8.648C125.249 8.648 125.249 8.616 125.249 8.584C125.249 8.552 125.249 8.552 125.281 8.52C125.377 8.296 125.633 8.2 125.793 7.976H125.665C125.536 7.976 125.473 8.008 125.409 8.072C125.121 8.52 124.769 8.84 124.257 9C124.129 9.064 124.033 9.192 123.969 9.288C123.649 9.672 123.361 10.088 123.169 10.536C122.913 11.112 122.721 11.72 122.721 12.36C122.721 12.552 122.753 12.744 122.785 12.968C122.849 13.32 122.977 13.64 123.393 13.768C123.521 13.8 123.585 13.864 123.617 13.992C123.681 14.216 123.841 14.344 123.969 14.536C124.225 14.856 124.321 15.016 124.321 15.208C124.321 15.336 124.289 15.528 124.225 15.784C124.225 15.816 124.193 15.848 124.193 15.88H123.873C123.489 15.88 123.137 15.912 122.945 16.168C122.529 16.68 122.113 17.224 121.953 17.896C121.665 19.24 121.537 20.584 121.441 21.928C121.409 22.6 121.377 23.272 121.377 23.976C121.377 24.712 121.409 25.48 121.505 26.248C121.665 27.272 122.017 28.168 122.721 28.904C123.169 29.352 123.585 29.8 124.001 30.312C124.385 30.824 124.929 31.016 125.569 31.016H125.825C126.625 30.92 127.393 30.696 128.065 30.28C128.929 29.736 129.697 29.096 130.401 28.392C131.137 27.624 131.553 26.696 131.681 25.64V25.384C131.681 25.256 131.681 25.16 131.585 25.032C131.425 25.224 131.297 25.416 131.169 25.576C130.881 25.992 130.593 26.376 130.273 26.728C129.857 27.144 129.409 27.464 128.833 27.56ZM125.985 8.648C126.081 8.648 126.145 8.68 126.145 8.776V8.808C126.145 8.84 126.145 8.84 126.113 8.84H126.049C125.985 8.84 125.921 8.808 125.889 8.712C125.889 8.712 125.953 8.68 125.985 8.648ZM137.141 29.256C136.469 29.352 135.989 29.896 135.989 30.504C135.989 30.76 136.085 31.016 136.245 31.24C136.725 31.88 137.269 32.488 137.973 32.936C138.549 33.288 139.157 33.448 139.829 33.48H139.989C140.821 33.48 141.589 33.224 142.389 32.904C144.341 32.104 145.845 30.792 147.317 29.352C147.733 28.936 147.957 28.392 148.117 27.816C148.149 27.688 148.181 27.592 148.181 27.496C148.181 27.176 148.021 26.92 147.765 26.696C147.509 26.472 147.221 26.312 146.933 26.152C146.773 26.088 146.613 26.024 146.517 25.928C145.909 25.224 145.077 24.904 144.245 24.584C142.901 24.04 141.461 23.688 140.085 23.208C139.413 22.984 138.741 22.76 138.101 22.472C137.589 22.216 137.461 21.768 137.429 21.288C137.429 20.84 137.653 20.552 138.037 20.36C138.773 19.976 139.541 19.656 140.341 19.464C141.109 19.272 141.877 19.176 142.645 19.176C143.221 19.176 143.829 19.24 144.437 19.368C144.821 19.464 145.269 19.528 145.461 19.784C145.813 20.2 146.325 20.392 146.517 20.904C146.549 21 146.581 21.16 146.773 21.16H146.805C146.933 20.744 147.189 20.392 147.733 20.328C147.797 20.328 147.893 20.296 147.925 20.232C148.277 19.848 148.661 19.496 148.885 18.984C149.045 18.664 149.109 18.344 149.109 18.024C149.109 17.512 148.917 17 148.533 16.616C148.213 16.264 147.829 16.04 147.413 15.88C147.189 15.784 146.997 15.688 146.805 15.496C145.717 14.312 144.341 13.896 142.837 13.896H142.485C140.789 13.992 139.285 14.632 137.909 15.56C137.269 15.976 136.757 16.552 136.149 16.968C134.965 17.8 134.037 18.856 133.301 20.072C132.853 20.808 132.629 21.608 132.533 22.44V22.696C132.533 23.432 132.789 24.104 133.397 24.616C133.685 24.84 133.973 25.096 134.165 25.416C134.741 26.344 135.637 26.76 136.597 27.08C137.781 27.464 139.029 27.656 140.245 27.912C141.269 28.104 142.325 28.264 143.349 28.616C141.845 29.096 140.405 29.768 138.837 30.024C138.965 30.056 139.061 30.056 139.157 30.056C139.509 30.056 139.829 29.96 140.149 29.896C141.141 29.672 142.069 29.256 143.029 29.032C143.093 29 143.157 28.968 143.253 28.968C143.317 28.968 143.381 29 143.445 29.096C142.261 29.544 141.109 29.992 139.861 30.216C139.541 30.248 139.221 30.28 138.901 30.28C138.517 30.28 138.101 30.248 137.717 30.12C137.301 30.024 137.205 29.896 137.205 29.48C137.205 29.384 137.205 29.32 137.141 29.256ZM138.485 15.624C139.925 14.792 141.397 14.216 143.061 14.216C143.413 14.216 143.829 14.248 144.213 14.312C144.149 14.376 144.085 14.376 144.021 14.376C143.957 14.376 143.861 14.376 143.797 14.344H143.317C142.165 14.568 140.949 14.696 139.861 15.24C139.445 15.464 138.965 15.592 138.485 15.624ZM145.717 15.336H145.333C144.213 15.336 143.253 15.016 142.197 14.984C142.581 14.856 143.029 14.792 143.477 14.792C144.245 14.792 145.045 14.984 145.717 15.336ZM138.165 30.44C138.229 30.408 138.261 30.408 138.293 30.408C138.357 30.408 138.421 30.44 138.485 30.472V30.504C138.485 30.568 138.485 30.568 138.453 30.568C138.421 30.568 138.389 30.536 138.357 30.536C138.293 30.504 138.197 30.536 138.165 30.44ZM163.837 10.376C164.413 10.216 164.989 10.216 165.565 10.184C165.533 9.96 165.373 9.896 165.245 9.896C165.181 9.896 165.117 9.928 165.053 9.928C163.933 10.088 162.781 10.024 161.661 10.088H159.837C159.421 10.056 159.293 10.056 159.293 9.832C159.293 9.736 159.325 9.64 159.325 9.512C159.389 9.064 159.453 8.616 159.549 8.168C159.773 7.048 159.869 5.896 160.221 4.808C160.349 4.488 160.413 4.136 160.541 3.784C160.573 3.688 160.573 3.592 160.573 3.528C160.573 3.4 160.509 3.336 160.253 3.24C160.061 3.176 159.901 3.112 159.709 3.112C159.581 3.112 159.485 3.144 159.357 3.208C159.293 3.24 159.229 3.24 159.165 3.24C158.973 3.24 158.781 3.144 158.589 3.112C158.493 3.08 158.493 3.016 158.493 2.92C158.493 2.824 158.525 2.728 158.525 2.632C158.493 2.44 158.493 2.28 158.333 2.152C158.141 2.024 158.077 1.864 157.981 1.672C157.949 1.544 157.885 1.416 157.757 1.416H157.725C157.565 1.416 157.501 1.576 157.437 1.672C157.245 2.024 157.245 2.408 157.085 2.792C156.989 2.728 156.893 2.696 156.765 2.696C156.445 2.696 156.157 2.952 155.805 2.952H155.773C155.645 2.952 155.613 3.112 155.517 3.208C155.229 3.496 155.133 3.912 154.877 4.2C154.717 4.36 154.621 4.52 154.589 4.744C154.493 5.128 154.397 5.512 154.333 5.896C154.109 7.08 154.045 8.296 153.885 9.48C153.821 9.896 153.821 9.896 153.405 9.896C152.445 9.896 151.485 9.864 150.525 9.832H150.237C150.045 9.832 149.885 9.864 149.821 10.152C149.789 10.248 149.725 10.248 149.661 10.248H148.797C148.733 10.248 148.669 10.216 148.605 10.216C148.349 10.216 148.157 10.312 147.965 10.408C147.773 10.536 147.677 10.792 147.421 10.792H147.325C147.293 10.792 147.293 10.824 147.293 10.856V10.92C147.293 10.952 147.325 10.984 147.325 11.016C147.325 11.176 147.197 11.24 147.069 11.24C146.877 11.272 146.877 11.4 146.845 11.528V11.592C146.845 11.72 146.941 11.752 147.037 11.784C147.229 11.784 147.261 11.848 147.261 12.04C147.293 12.296 147.485 12.424 147.709 12.52C147.741 12.552 147.741 12.584 147.741 12.616C147.613 12.776 147.421 12.648 147.293 12.776C147.293 12.872 147.357 13.032 147.357 13.16V13.32C147.357 13.544 147.517 13.608 147.709 13.64C147.997 13.672 148.317 13.672 148.605 13.672H149.469C150.685 13.672 151.901 13.64 153.117 13.608C153.501 13.608 153.501 13.608 153.501 13.992C153.501 14.088 153.469 14.216 153.469 14.312C153.341 15.976 153.245 17.672 153.181 19.368C153.149 19.848 153.149 20.36 153.149 20.84C153.149 22.728 153.277 24.552 153.405 26.44C153.533 27.88 153.885 29.256 154.461 30.6C154.909 31.752 155.805 32.584 156.669 33.416C156.957 33.736 157.341 33.896 157.725 33.896C158.013 33.896 158.301 33.8 158.557 33.608C159.069 33.224 159.549 32.872 159.965 32.424C160.349 31.976 160.541 31.464 160.573 30.92V30.792C160.573 30.664 160.573 30.568 160.445 30.536C160.413 30.536 160.413 30.504 160.381 30.504C160.317 30.504 160.221 30.6 160.157 30.664C159.965 30.792 159.773 30.952 159.581 31.08C159.389 31.208 159.261 31.272 159.165 31.272C159.005 31.272 158.909 31.144 158.813 30.824C158.717 30.536 158.621 30.216 158.589 29.896C158.493 29.32 158.461 28.744 158.461 28.136C158.461 27.56 158.493 26.984 158.493 26.408C158.493 25.992 158.461 25.544 158.429 25.128C158.365 24.392 158.301 23.656 158.269 22.92C158.237 22.344 158.237 21.768 158.237 21.192C158.237 18.824 158.429 16.488 158.685 14.12C158.749 13.672 158.749 13.672 159.197 13.672C160.125 13.704 161.053 13.8 161.981 14.024C162.109 14.056 162.237 14.056 162.365 14.056C162.685 14.056 162.941 13.992 163.165 13.736C163.325 13.576 163.517 13.512 163.741 13.512H163.869C164.061 13.544 164.253 13.576 164.444 13.576C164.669 13.576 164.892 13.512 165.085 13.32C165.117 13.288 165.149 13.288 165.213 13.288H165.309C165.757 13.224 165.757 13.224 166.045 12.776C166.077 12.712 166.141 12.68 166.173 12.68C166.461 12.68 166.589 12.456 166.781 12.328C166.429 11.912 166.429 11.912 166.141 11.816C165.501 11.592 165.501 11.592 165.085 10.952C165.117 10.92 165.181 10.92 165.213 10.92C165.309 10.92 165.437 10.984 165.533 10.984C165.597 10.984 165.628 10.952 165.693 10.888C165.533 10.6 165.469 10.504 165.373 10.504C165.341 10.504 165.277 10.504 165.213 10.536C165.053 10.568 164.925 10.6 164.765 10.6C164.444 10.6 164.157 10.504 163.837 10.376ZM153.693 10.344H153.277C152.445 10.344 151.613 10.216 150.781 10.216C150.621 10.216 150.429 10.248 150.237 10.248C150.429 10.152 150.909 10.12 151.485 10.12C152.381 10.12 153.405 10.216 153.693 10.344ZM159.613 10.376H161.053V10.44H159.581C159.581 10.408 159.613 10.408 159.613 10.376ZM157.661 2.056C157.757 2.184 157.789 2.312 157.789 2.44C157.789 2.568 157.757 2.664 157.693 2.792C157.693 2.824 157.661 2.824 157.597 2.824H157.533C157.501 2.824 157.469 2.728 157.469 2.696C157.533 2.504 157.501 2.28 157.661 2.056ZM179.058 29.864C178.802 29.896 178.706 30.088 178.546 30.184C178.258 30.408 178.034 30.536 177.874 30.536C177.65 30.536 177.49 30.28 177.362 29.768C177.298 29.544 177.266 29.288 177.266 29.064C177.266 28.84 177.234 28.616 177.234 28.392C177.234 28.04 177.266 27.72 177.298 27.4C177.362 26.696 177.362 25.992 177.362 25.32V23.912C177.362 23.208 177.33 23.144 176.594 23.08C176.306 23.048 176.21 22.92 176.21 22.632C176.242 22.44 176.274 22.344 176.402 22.216C176.658 21.992 176.914 21.768 177.138 21.512C177.618 20.968 177.874 20.264 177.874 19.592C177.874 18.632 177.426 17.704 176.562 17.192C176.21 16.968 175.922 16.712 175.634 16.392C174.994 15.56 174.098 15.176 173.074 15.176H172.818C171.986 15.24 171.186 15.496 170.482 15.944C169.682 16.392 168.882 16.872 168.146 17.416C165.522 19.432 163.89 22.024 163.442 25.288C163.41 25.64 163.378 25.992 163.378 26.312C163.378 27.368 163.602 28.392 164.242 29.32C164.69 29.992 165.17 30.632 165.65 31.304C166.194 32.104 166.994 32.424 167.922 32.424H168.178C169.01 32.36 169.778 32.04 170.482 31.56C171.73 30.792 172.978 29.96 173.906 28.808C173.938 28.776 174.002 28.776 174.034 28.744C174.098 28.872 174.162 29 174.194 29.128C174.514 29.896 175.026 30.568 175.538 31.208C175.922 31.688 176.402 31.912 176.882 31.912C177.074 31.912 177.298 31.88 177.49 31.784C177.874 31.624 178.194 31.432 178.514 31.144C178.834 30.856 179.09 30.504 179.09 30.088C179.09 29.992 179.058 29.928 179.058 29.864ZM168.498 25.64C168.562 23.944 169.074 22.28 170.098 20.808C170.418 20.328 170.834 20.072 171.378 19.944C171.762 19.848 172.114 19.816 172.466 19.816C173.202 19.816 173.874 20.008 174.514 20.424C174.674 20.52 174.866 20.648 174.898 20.84C174.994 21.256 175.25 21.576 175.506 21.928C175.602 22.056 175.73 22.184 175.73 22.376V22.472C175.73 22.632 175.666 22.696 175.474 22.696H175.378C174.834 22.696 174.386 23.048 174.098 23.688C173.874 24.232 173.778 24.808 173.746 25.384C173.714 25.704 173.586 26.024 173.426 26.312C173.074 26.92 172.658 27.464 172.146 27.944C171.57 28.52 170.93 28.744 170.162 28.744C170.034 28.744 169.906 28.712 169.746 28.712C169.362 28.68 169.106 28.488 168.946 28.072C168.69 27.304 168.53 26.536 168.498 25.64ZM174.386 15.72C174.162 15.656 173.938 15.656 173.714 15.656C173.138 15.656 172.562 15.816 171.986 15.976C171.57 16.104 171.154 16.2 170.706 16.264C171.186 15.784 172.242 15.496 173.17 15.496C173.65 15.496 174.066 15.56 174.386 15.72ZM175.218 16.616C174.642 16.616 173.81 16.424 173.202 16.104C173.394 16.072 173.554 16.04 173.746 16.04C174.226 16.04 174.738 16.2 175.218 16.616ZM169.618 28.904C169.938 28.904 170.258 28.936 170.578 28.936C170.418 29.064 170.258 29.128 170.13 29.128C169.97 29.128 169.778 29.032 169.618 28.904ZM183.85 15.24C183.754 15.176 183.658 15.176 183.562 15.176C183.37 15.176 183.146 15.272 182.954 15.272H182.89C182.506 15.272 182.41 15.592 182.218 15.816C181.993 16.072 181.962 16.456 181.674 16.68C181.61 16.712 181.61 16.776 181.61 16.84C181.546 17.096 181.482 17.352 181.45 17.608C181.066 19.56 180.938 21.544 180.938 23.528C180.97 25.192 181.13 26.856 181.578 28.456C181.834 29.256 182.026 30.12 182.858 30.568C182.922 30.632 182.986 30.728 183.018 30.824C183.21 31.048 183.37 31.304 183.562 31.528C183.69 31.656 183.818 31.752 183.946 31.752C184.074 31.752 184.202 31.656 184.298 31.528C184.394 31.4 184.458 31.24 184.522 31.112C184.65 30.856 184.81 30.664 185.066 30.664H185.194C185.354 30.664 185.514 30.6 185.578 30.504C185.738 30.216 186.026 30.056 186.218 29.832C186.602 29.384 186.794 28.84 186.89 28.264C187.018 27.56 187.114 26.824 187.242 26.12C187.626 24.072 188.138 22.056 189.002 20.168C189.418 19.272 189.898 18.472 190.506 17.704C190.73 17.384 191.018 17.16 191.434 17.128H191.53C191.626 17.128 191.69 17.16 191.754 17.288C192.138 18.376 193.066 19.048 193.77 19.88C194.09 20.296 194.506 20.488 194.954 20.488C195.146 20.488 195.37 20.456 195.594 20.36C196.554 19.944 197.322 19.272 197.962 18.472C198.09 18.28 198.154 18.088 198.218 17.864C198.282 17.768 198.282 17.672 198.282 17.576C198.282 17.48 198.282 17.384 198.25 17.288C198.218 17.16 198.186 17.096 198.122 17.096C198.058 17.096 198.026 17.128 197.962 17.16C197.706 17.352 197.45 17.544 197.194 17.704C197.002 17.832 196.874 17.896 196.746 17.896C196.586 17.896 196.49 17.768 196.33 17.512C196.266 17.384 196.202 17.256 196.17 17.128C196.074 16.872 196.01 16.648 195.914 16.392C195.562 15.496 195.146 14.696 194.09 14.472C193.866 14.44 193.77 14.216 193.642 14.056C193.29 13.64 193.002 13.448 192.65 13.448C192.458 13.448 192.234 13.512 191.978 13.608C191.754 13.704 191.562 13.8 191.402 13.928C190.026 14.888 188.842 16.008 188.01 17.512C187.402 18.568 186.89 19.624 186.442 20.744C186.378 20.904 186.346 21.128 186.122 21.256C186.218 19.816 186.378 18.44 186.602 17.096C186.666 16.712 186.73 16.328 186.762 15.976C186.762 15.944 186.794 15.88 186.794 15.848C186.794 15.688 186.698 15.624 186.506 15.592C186.346 15.56 186.218 15.496 186.026 15.496C185.962 15.496 185.866 15.496 185.77 15.56C185.738 15.592 185.674 15.592 185.641 15.592C185.546 15.592 185.482 15.56 185.386 15.56C185.034 15.528 184.938 15.528 184.938 15.368C184.938 15.272 184.938 15.208 184.97 15.08V15.016C184.97 14.792 184.842 14.696 184.714 14.6C184.682 14.6 184.682 14.568 184.65 14.568C184.554 14.568 184.554 14.824 184.426 14.856C184.394 14.76 184.394 14.696 184.394 14.6V14.248C184.394 14.152 184.394 14.056 184.33 13.928C183.946 14.312 184.042 14.824 183.85 15.24ZM191.242 14.248C191.722 13.864 192.17 13.672 192.714 13.608C192.522 13.928 191.946 14.152 191.242 14.248ZM193.418 14.472C193.034 14.44 192.746 14.28 192.426 14.28H192.362C192.618 14.152 192.746 14.056 192.874 14.056C193.066 14.056 193.194 14.184 193.418 14.472ZM185.386 29.64C185.45 29.672 185.482 29.704 185.482 29.736L185.386 29.928L185.354 29.96C185.322 29.96 185.322 29.96 185.322 29.928C185.322 29.832 185.354 29.736 185.386 29.64Z" fill="url(#paint0_linear_2_4)"/>
<defs>
<linearGradient id="paint0_linear_2_4" x1="100" y1="-29.5" x2="94.5" y2="55" gradientUnits="userSpaceOnUse">
<stop stop-color="#7D0A80"/>
<stop offset="1" stop-color="#02C567"/>
</linearGradient>
</defs>
</svg>
