<svg width="24" height="25" viewBox="0 0 24 25" fill="none" xmlns="http://www.w3.org/2000/svg">
<path d="M12 7.48986C9.33983 7.48986 7.19296 9.63673 7.19296 12.2969C7.19296 14.957 9.33983 17.1039 12 17.1039C14.6601 17.1039 16.807 14.957 16.807 12.2969C16.807 9.63673 14.6601 7.48986 12 7.48986ZM12 15.4211C10.2797 15.4211 8.87577 14.0172 8.87577 12.2969C8.87577 10.5766 10.2797 9.17267 12 9.17267C13.7203 9.17267 15.1242 10.5766 15.1242 12.2969C15.1242 14.0172 13.7203 15.4211 12 15.4211ZM17.0039 6.17267C16.3828 6.17267 15.8812 6.67423 15.8812 7.29533C15.8812 7.91642 16.3828 8.41798 17.0039 8.41798C17.625 8.41798 18.1266 7.91876 18.1266 7.29533C18.1267 7.14784 18.0978 7.00178 18.0415 6.86549C17.9851 6.72919 17.9024 6.60536 17.7981 6.50108C17.6939 6.39679 17.57 6.3141 17.4337 6.25775C17.2974 6.2014 17.1514 6.17248 17.0039 6.17267ZM21.3703 12.2969C21.3703 11.0031 21.382 9.72111 21.3094 8.4297C21.2367 6.9297 20.8945 5.59845 19.7976 4.50158C18.6984 3.40236 17.3695 3.06251 15.8695 2.98986C14.5758 2.9172 13.2937 2.92892 12.0023 2.92892C10.7086 2.92892 9.42655 2.9172 8.13515 2.98986C6.63515 3.06251 5.3039 3.4047 4.20702 4.50158C3.1078 5.60079 2.76796 6.9297 2.6953 8.4297C2.62265 9.72345 2.63436 11.0055 2.63436 12.2969C2.63436 13.5883 2.62265 14.8727 2.6953 16.1641C2.76796 17.6641 3.11015 18.9953 4.20702 20.0922C5.30624 21.1914 6.63515 21.5313 8.13515 21.6039C9.4289 21.6766 10.7109 21.6649 12.0023 21.6649C13.2961 21.6649 14.5781 21.6766 15.8695 21.6039C17.3695 21.5313 18.7008 21.1891 19.7976 20.0922C20.8969 18.993 21.2367 17.6641 21.3094 16.1641C21.3844 14.8727 21.3703 13.5906 21.3703 12.2969ZM19.3078 17.8235C19.1367 18.25 18.9305 18.5688 18.6 18.8969C18.2695 19.2274 17.9531 19.4336 17.5266 19.6047C16.2937 20.0945 13.3664 19.9844 12 19.9844C10.6336 19.9844 7.7039 20.0945 6.47108 19.607C6.04452 19.436 5.72577 19.2297 5.39765 18.8992C5.06718 18.5688 4.86093 18.2524 4.68983 17.8258C4.20233 16.5906 4.31249 13.6633 4.31249 12.2969C4.31249 10.9305 4.20233 8.00079 4.68983 6.76798C4.86093 6.34142 5.06718 6.02267 5.39765 5.69454C5.72811 5.36642 6.04452 5.15783 6.47108 4.98673C7.7039 4.49923 10.6336 4.60939 12 4.60939C13.3664 4.60939 16.2961 4.49923 17.5289 4.98673C17.9555 5.15783 18.2742 5.36408 18.6023 5.69454C18.9328 6.02501 19.1391 6.34142 19.3101 6.76798C19.7976 8.00079 19.6875 10.9305 19.6875 12.2969C19.6875 13.6633 19.7976 16.5906 19.3078 17.8235Z" fill="#BC20BF"/>
</svg>
