<svg width="24" height="21" viewBox="0 0 24 21" fill="none" xmlns="http://www.w3.org/2000/svg">
<g clip-path="url(#clip0_8_167)">
<path d="M24 3.08915C23.1013 3.48728 22.148 3.74862 21.1719 3.86446C22.1887 3.25509 22.9693 2.29012 23.3369 1.14037C22.3704 1.71392 21.3129 2.11802 20.2103 2.33521C19.312 1.3783 18.0324 0.780273 16.6162 0.780273C13.8968 0.780273 11.6921 2.9849 11.6921 5.70402C11.6921 6.08999 11.7357 6.46574 11.8196 6.82621C7.72744 6.6208 4.09931 4.66059 1.67072 1.68159C1.24697 2.4088 1.00416 3.25471 1.00416 4.15696C1.00416 5.86527 1.8735 7.37231 3.19462 8.25534C2.4127 8.23085 1.64798 8.01966 0.964313 7.6394C0.964031 7.66002 0.964031 7.68065 0.964031 7.70137C0.964031 10.087 2.66128 12.0771 4.91372 12.5295C4.18864 12.7267 3.42809 12.7555 2.69016 12.6139C3.31669 14.5701 5.13516 15.9936 7.28972 16.0334C5.60456 17.354 3.48141 18.1412 1.17459 18.1412C0.777094 18.1412 0.385219 18.1178 0 18.0724C2.17903 19.4694 4.76719 20.2846 7.54781 20.2846C16.6047 20.2846 21.5573 12.7817 21.5573 6.27505C21.5573 6.06149 21.5526 5.84915 21.543 5.63802C22.507 4.94117 23.339 4.07804 24 3.08915Z" fill="#55ACEE"/>
</g>
<defs>
<clipPath id="clip0_8_167">
<rect width="24" height="19.5938" fill="white" transform="translate(0 0.703125)"/>
</clipPath>
</defs>
</svg>
