<svg width="24" height="25" viewBox="0 0 24 25" fill="none" xmlns="http://www.w3.org/2000/svg">
<path d="M20.557 6.09453L18.0609 3.60078C17.7562 3.29609 17.3484 3.125 16.9172 3.125C16.4859 3.125 16.0781 3.29375 15.7734 3.60078L13.0852 6.28437C12.7805 6.58906 12.6094 6.99922 12.6094 7.43047C12.6094 7.86406 12.7781 8.26953 13.0852 8.57656L15.1852 10.6789C14.7068 11.7936 14.0194 12.8063 13.1602 13.6625C12.3 14.5273 11.2945 15.2094 10.1789 15.6922L8.07891 13.5898C7.77422 13.2852 7.36641 13.1141 6.93516 13.1141C6.72244 13.1133 6.51172 13.155 6.31532 13.2366C6.11892 13.3183 5.9408 13.4384 5.79141 13.5898L3.10078 16.2734C2.79609 16.5781 2.625 16.9883 2.625 17.4195C2.625 17.8531 2.79375 18.2586 3.10078 18.5656L5.59453 21.0594C6.11484 21.5797 6.83203 21.8773 7.56797 21.8773C7.72031 21.8773 7.86797 21.8656 8.01797 21.8398C11.1211 21.3289 14.2008 19.6766 16.6875 17.1922C19.1719 14.7031 20.8219 11.6234 21.3375 8.51797C21.4852 7.63672 21.1898 6.72969 20.557 6.09453ZM19.6758 8.23906C19.2188 11.0023 17.7328 13.7586 15.4945 15.9969C13.2562 18.2352 10.5023 19.7211 7.73906 20.1781C7.39219 20.2367 7.03594 20.1195 6.78281 19.8687L4.33359 17.4195L6.93047 14.8203L9.73828 17.6328L9.75937 17.6539L10.2656 17.4664C11.8006 16.902 13.1945 16.0107 14.3508 14.854C15.507 13.6974 16.3979 12.3032 16.9617 10.768L17.1492 10.2617L14.318 7.43281L16.9148 4.83359L19.3641 7.28281C19.6172 7.53594 19.7344 7.89219 19.6758 8.23906Z" fill="#353535"/>
</svg>
