<svg width="38" height="38" viewBox="0 0 38 38" fill="none" xmlns="http://www.w3.org/2000/svg">
<path d="M37.6375 35.0547L25.4641 22.8812C27.3531 20.4391 28.375 17.4531 28.375 14.3125C28.375 10.5531 26.9078 7.02812 24.2547 4.37031C21.6016 1.7125 18.0672 0.25 14.3125 0.25C10.5578 0.25 7.02344 1.71719 4.37031 4.37031C1.7125 7.02344 0.25 10.5531 0.25 14.3125C0.25 18.0672 1.71719 21.6016 4.37031 24.2547C7.02344 26.9125 10.5531 28.375 14.3125 28.375C17.4531 28.375 20.4344 27.3531 22.8766 25.4688L35.05 37.6375C35.0857 37.6732 35.1281 37.7015 35.1747 37.7209C35.2214 37.7402 35.2714 37.7502 35.3219 37.7502C35.3724 37.7502 35.4224 37.7402 35.469 37.7209C35.5157 37.7015 35.5581 37.6732 35.5938 37.6375L37.6375 35.5984C37.6732 35.5627 37.7015 35.5204 37.7209 35.4737C37.7402 35.4271 37.7502 35.3771 37.7502 35.3266C37.7502 35.2761 37.7402 35.2261 37.7209 35.1794C37.7015 35.1328 37.6732 35.0904 37.6375 35.0547ZM21.7375 21.7375C19.75 23.7203 17.1156 24.8125 14.3125 24.8125C11.5094 24.8125 8.875 23.7203 6.8875 21.7375C4.90469 19.75 3.8125 17.1156 3.8125 14.3125C3.8125 11.5094 4.90469 8.87031 6.8875 6.8875C8.875 4.90469 11.5094 3.8125 14.3125 3.8125C17.1156 3.8125 19.7547 4.9 21.7375 6.8875C23.7203 8.875 24.8125 11.5094 24.8125 14.3125C24.8125 17.1156 23.7203 19.7547 21.7375 21.7375Z" fill="#1A1A1A"/>
</svg>
